<?xml version="1.0" encoding="utf-8"?>
<!-- Generator: Adobe Illustrator 23.0.3, SVG Export Plug-In . SVG Version: 6.00 Build 0)  -->
<svg version="1.1" id="Layer_1" xmlns="http://www.w3.org/2000/svg" xmlns:xlink="http://www.w3.org/1999/xlink" x="0px" y="0px"
	 viewBox="0 0 841.89 595.28" style="enable-background:new 0 0 841.89 595.28;" xml:space="preserve">
<style type="text/css">
	.st0{fill:url(#SVGID_1_);}
	.st1{fill:url(#SVGID_2_);}
	.st2{fill:url(#SVGID_3_);}
	.st3{fill:url(#SVGID_4_);}
	.st4{fill:url(#SVGID_5_);}
	.st5{fill:url(#SVGID_6_);}
	.st6{fill:url(#SVGID_7_);}
	.st7{fill:url(#SVGID_8_);}
	.st8{fill:url(#SVGID_9_);}
	.st9{fill:url(#SVGID_10_);}
	.st10{fill:url(#SVGID_11_);}
	.st11{fill:url(#SVGID_12_);}
	.st12{fill:#1F6697;}
	.st13{fill:#FFFFFF;}
	.st14{fill:url(#SVGID_13_);}
	.st15{fill:url(#SVGID_14_);}
	.st16{fill:url(#SVGID_15_);}
	.st17{fill:url(#SVGID_16_);}
	.st18{fill:url(#SVGID_17_);}
	.st19{opacity:0.4;fill:#FFFFFF;}
	.st20{fill:url(#SVGID_18_);}
	.st21{fill:url(#SVGID_19_);}
	.st22{fill:url(#SVGID_20_);}
	.st23{fill:url(#SVGID_21_);}
	.st24{fill:url(#SVGID_22_);}
	.st25{fill:url(#SVGID_23_);}
	.st26{fill:url(#SVGID_24_);}
	.st27{fill:url(#SVGID_25_);}
	.st28{fill:url(#SVGID_26_);}
	.st29{fill:url(#SVGID_27_);}
	.st30{fill:url(#SVGID_28_);}
	.st31{fill:url(#SVGID_29_);}
	.st32{fill:url(#SVGID_30_);}
	.st33{fill:url(#SVGID_31_);}
	.st34{fill:url(#SVGID_32_);}
	.st35{fill:url(#SVGID_33_);}
	.st36{fill:url(#SVGID_34_);}
</style>
<g>
	<linearGradient id="SVGID_1_" gradientUnits="userSpaceOnUse" x1="464.2056" y1="164.2932" x2="464.2056" y2="290.9875">
		<stop  offset="0.4756" style="stop-color:#662D91"/>
		<stop  offset="0.6223" style="stop-color:#5D5FAA"/>
		<stop  offset="0.7533" style="stop-color:#507EC0"/>
		<stop  offset="0.8638" style="stop-color:#4096D2"/>
		<stop  offset="0.9495" style="stop-color:#30A4DD"/>
		<stop  offset="1" style="stop-color:#27AAE1"/>
	</linearGradient>
	<path class="st0" d="M485.12,283.05c0.06,0.58,0.09,1.15,0.09,1.73c0,2.88-0.55,5.61-1.64,8.16c-1.1,2.56-2.6,4.79-4.5,6.69
		c-1.9,1.9-4.14,3.4-6.69,4.5c-2.56,1.1-5.28,1.64-8.16,1.64c-2.89,0-5.61-0.55-8.16-1.64c-2.56-1.1-4.79-2.6-6.69-4.5
		c-1.9-1.9-3.4-4.13-4.5-6.69c-1.1-2.56-1.64-5.28-1.64-8.16s0.55-5.61,1.64-8.16c1.1-2.56,2.6-4.79,4.5-6.69
		c1.9-1.9,4.13-3.4,6.69-4.5c2.56-1.1,5.28-1.64,8.16-1.64c2.92,0,5.65,0.55,8.19,1.64s4.75,2.61,6.63,4.53l-4.85,4.9
		c-1.35-1.35-2.88-2.37-4.59-3.09c-1.71-0.71-3.51-1.07-5.39-1.07c-1.89,0-3.67,0.36-5.37,1.07c-1.69,0.71-3.21,1.74-4.56,3.09
		c-1.35,1.35-2.38,2.87-3.09,4.56c-0.71,1.69-1.07,3.48-1.07,5.37c0,1.89,0.35,3.68,1.07,5.39c0.71,1.71,1.74,3.24,3.09,4.59
		c1.35,1.35,2.86,2.37,4.56,3.06c1.69,0.69,3.48,1.04,5.37,1.04c1.88,0,3.68-0.35,5.39-1.04c1.71-0.69,3.24-1.71,4.59-3.06
		c1.81-1.88,3.04-4.06,3.69-6.52h-18.69l1.73-6.92h24C485,281.89,485.06,282.47,485.12,283.05z"/>
	<linearGradient id="SVGID_2_" gradientUnits="userSpaceOnUse" x1="515.2667" y1="164.2932" x2="515.2667" y2="290.9875">
		<stop  offset="0.4756" style="stop-color:#662D91"/>
		<stop  offset="0.6223" style="stop-color:#5D5FAA"/>
		<stop  offset="0.7533" style="stop-color:#507EC0"/>
		<stop  offset="0.8638" style="stop-color:#4096D2"/>
		<stop  offset="0.9495" style="stop-color:#30A4DD"/>
		<stop  offset="1" style="stop-color:#27AAE1"/>
	</linearGradient>
	<path class="st1" d="M530.5,276.12v28.91h-6.92V290.6c0-2.31-0.81-4.27-2.42-5.88c-1.62-1.62-3.58-2.42-5.88-2.42
		c-1.12,0-2.18,0.21-3.2,0.63c-1.02,0.42-1.91,1.02-2.68,1.79c-1.62,1.62-2.42,3.58-2.42,5.88c0,2.27,0.81,4.21,2.42,5.83
		c0.77,0.81,1.66,1.41,2.68,1.82c1.02,0.4,2.09,0.61,3.2,0.61c1.15,0,2.19-0.19,3.12-0.58l2.48,6.17c-1.77,0.88-3.83,1.33-6.17,1.33
		c-2.12,0-4.07-0.4-5.86-1.18c-1.79-0.79-3.34-1.88-4.64-3.26s-2.33-3-3.06-4.85c-0.73-1.85-1.1-3.81-1.1-5.89
		c0-2.11,0.36-4.1,1.1-5.94c0.73-1.85,1.75-3.46,3.06-4.85s2.86-2.47,4.64-3.26c1.79-0.79,3.74-1.18,5.86-1.18
		c1.88,0,3.56,0.29,5.02,0.87s2.75,1.31,3.87,2.19v-2.31H530.5z"/>
	<linearGradient id="SVGID_3_" gradientUnits="userSpaceOnUse" x1="554.3843" y1="164.2932" x2="554.3843" y2="290.9875">
		<stop  offset="0.4756" style="stop-color:#662D91"/>
		<stop  offset="0.6223" style="stop-color:#5D5FAA"/>
		<stop  offset="0.7533" style="stop-color:#507EC0"/>
		<stop  offset="0.8638" style="stop-color:#4096D2"/>
		<stop  offset="0.9495" style="stop-color:#30A4DD"/>
		<stop  offset="1" style="stop-color:#27AAE1"/>
	</linearGradient>
	<path class="st2" d="M557.36,276.18c1.37-0.58,2.91-0.87,4.64-0.87v6.92c-2.31,0-4.27,0.81-5.88,2.42
		c-1.62,1.69-2.42,3.65-2.42,5.88v14.48h-6.92v-14.48v-14.42h6.92v2.25C554.77,277.49,555.99,276.76,557.36,276.18z"/>
	<linearGradient id="SVGID_4_" gradientUnits="userSpaceOnUse" x1="589.9825" y1="164.2932" x2="589.9825" y2="290.9875">
		<stop  offset="0.4756" style="stop-color:#662D91"/>
		<stop  offset="0.6223" style="stop-color:#5D5FAA"/>
		<stop  offset="0.7533" style="stop-color:#507EC0"/>
		<stop  offset="0.8638" style="stop-color:#4096D2"/>
		<stop  offset="0.9495" style="stop-color:#30A4DD"/>
		<stop  offset="1" style="stop-color:#27AAE1"/>
	</linearGradient>
	<path class="st3" d="M605.21,276.12v28.91h-6.92V290.6c0-2.31-0.81-4.27-2.42-5.88c-1.62-1.62-3.58-2.42-5.88-2.42
		c-1.12,0-2.18,0.21-3.2,0.63c-1.02,0.42-1.91,1.02-2.68,1.79c-1.62,1.62-2.42,3.58-2.42,5.88c0,2.27,0.81,4.21,2.42,5.83
		c0.77,0.81,1.66,1.41,2.68,1.82c1.02,0.4,2.09,0.61,3.2,0.61c1.15,0,2.19-0.19,3.12-0.58l2.48,6.17c-1.77,0.88-3.83,1.33-6.17,1.33
		c-2.12,0-4.07-0.4-5.86-1.18c-1.79-0.79-3.34-1.88-4.64-3.26s-2.33-3-3.06-4.85c-0.73-1.85-1.1-3.81-1.1-5.89
		c0-2.11,0.36-4.1,1.1-5.94c0.73-1.85,1.75-3.46,3.06-4.85s2.86-2.47,4.64-3.26c1.79-0.79,3.74-1.18,5.86-1.18
		c1.88,0,3.56,0.29,5.02,0.87s2.75,1.31,3.87,2.19v-2.31H605.21z"/>
</g>
<g>
	<linearGradient id="SVGID_5_" gradientUnits="userSpaceOnUse" x1="344.4326" y1="271.0102" x2="358.8991" y2="256.2033">
		<stop  offset="0.248" style="stop-color:#D83D4F"/>
		<stop  offset="0.3905" style="stop-color:#E06056"/>
		<stop  offset="0.5802" style="stop-color:#EB8260"/>
		<stop  offset="0.7285" style="stop-color:#F49666"/>
		<stop  offset="0.8159" style="stop-color:#F89E68"/>
	</linearGradient>
	<path class="st4" d="M362.85,273.18l-6.47,6.47c-6.08,6.08-15.94,6.08-22.02,0l-6.99-6.99c-1.43-1.43-1.43-3.75,0-5.19l12.29-12.29
		c1.43-1.43,3.75-1.43,5.19,0L362.85,273.18z"/>
	<linearGradient id="SVGID_6_" gradientUnits="userSpaceOnUse" x1="337.2" y1="278.716" x2="358.3012" y2="257.3144">
		<stop  offset="0.248" style="stop-color:#D83D4F"/>
		<stop  offset="0.3905" style="stop-color:#E06056"/>
		<stop  offset="0.5802" style="stop-color:#EB8260"/>
		<stop  offset="0.7285" style="stop-color:#F49666"/>
		<stop  offset="0.8159" style="stop-color:#F89E68"/>
	</linearGradient>
	<path class="st5" d="M362.85,276.66l-6.47,6.47c-6.08,6.08-15.94,6.08-22.02,0l-10.08-10.08c-1.43-1.43-1.43-3.75,0-5.19
		l12.29-12.29c1.43-1.43,3.75-1.43,5.19,0L362.85,276.66z"/>
	<linearGradient id="SVGID_7_" gradientUnits="userSpaceOnUse" x1="394.7748" y1="295.5856" x2="413.2704" y2="278.2282">
		<stop  offset="0" style="stop-color:#D83D4F"/>
		<stop  offset="0.2509" style="stop-color:#E06056"/>
		<stop  offset="0.585" style="stop-color:#EB8260"/>
		<stop  offset="0.8461" style="stop-color:#F49666"/>
		<stop  offset="1" style="stop-color:#F89E68"/>
	</linearGradient>
	<path class="st6" d="M431.48,295.7c0,3.23-1.23,6.46-3.7,8.93c-1.45,1.45-3.18,2.46-5.02,3.03l-0.12,0.03
		c-3.98,1.17-8.44,0.27-11.68-2.71c-0.15-0.14-0.31-0.29-0.46-0.44l-32.67-32.68l6.46-6.47c6.08-6.08,15.94-6.08,22.03,0
		l21.67,21.67c0.56,0.57,1.06,1.17,1.49,1.8c0.09,0.13,0.17,0.27,0.25,0.4C430.89,291.25,431.48,293.47,431.48,295.7z"/>
	<linearGradient id="SVGID_8_" gradientUnits="userSpaceOnUse" x1="375.756" y1="253.1277" x2="432.9508" y2="308.9207">
		<stop  offset="0" style="stop-color:#262262"/>
		<stop  offset="0.2797" style="stop-color:#2B4F83"/>
		<stop  offset="0.5296" style="stop-color:#2F71A4"/>
		<stop  offset="0.7403" style="stop-color:#2E8DC1"/>
		<stop  offset="0.9037" style="stop-color:#2AA1D6"/>
		<stop  offset="1" style="stop-color:#27AAE1"/>
	</linearGradient>
	<path class="st7" d="M427.98,304.55c-1.51,1.51-3.31,2.55-5.23,3.11l-0.12,0.03c-1.11,0.31-2.25,0.47-3.4,0.47
		c-2.97,0-5.94-1.06-8.28-3.18c-0.15-0.14-0.31-0.29-0.46-0.44l-32.67-32.68l6.46-6.47c6.08-6.08,15.94-6.08,22.03,0l21.67,21.67
		c0.56,0.57,1.06,1.17,1.49,1.8c0.09,0.13,0.17,0.27,0.25,0.4C432.71,294.05,432.12,300.41,427.98,304.55z"/>
	<linearGradient id="SVGID_9_" gradientUnits="userSpaceOnUse" x1="412.1537" y1="345.4474" x2="374.5195" y2="264.7731">
		<stop  offset="0.248" style="stop-color:#D83D4F"/>
		<stop  offset="0.3905" style="stop-color:#E06056"/>
		<stop  offset="0.5802" style="stop-color:#EB8260"/>
		<stop  offset="0.7285" style="stop-color:#F49666"/>
		<stop  offset="0.8159" style="stop-color:#F89E68"/>
	</linearGradient>
	<path class="st8" d="M321.08,268.44c-1.43,1.43-1.43,3.76,0,5.19l41.67,41.54c8.33,8.3,21.81,8.3,30.14,0l40.96-40.83
		c1.58-1.58,1.59-4.15,0-5.73l-11.82-11.82c-1.58-1.58-4.14-1.58-5.72,0l-38.5,38.5l-39.2-39.2c-1.43-1.43-3.75-1.43-5.19,0
		L321.08,268.44z"/>
	
		<linearGradient id="SVGID_10_" gradientUnits="userSpaceOnUse" x1="-1326.1473" y1="274.4665" x2="-1379.5426" y2="222.5451" gradientTransform="matrix(-1 0 0 1 -949.0112 38.1488)">
		<stop  offset="0.248" style="stop-color:#D83D4F"/>
		<stop  offset="0.3905" style="stop-color:#E06056"/>
		<stop  offset="0.5802" style="stop-color:#EB8260"/>
		<stop  offset="0.7285" style="stop-color:#F49666"/>
		<stop  offset="0.8159" style="stop-color:#F89E68"/>
	</linearGradient>
	<path class="st9" d="M377.9,295.33l6.47,6.47c6.08,6.08,15.94,6.08,22.02,0l28.22-28.22c1.43-1.43,1.43-3.75,0-5.19l-12.29-12.29
		c-1.43-1.43-3.75-1.43-5.19,0L377.9,295.33z"/>
	<linearGradient id="SVGID_11_" gradientUnits="userSpaceOnUse" x1="346.6412" y1="288.6564" x2="331.3812" y2="299.3656">
		<stop  offset="0" style="stop-color:#262262"/>
		<stop  offset="0.2797" style="stop-color:#2B4F83"/>
		<stop  offset="0.5296" style="stop-color:#2F71A4"/>
		<stop  offset="0.7403" style="stop-color:#2E8DC1"/>
		<stop  offset="0.9037" style="stop-color:#2AA1D6"/>
		<stop  offset="1" style="stop-color:#27AAE1"/>
	</linearGradient>
	<path class="st10" d="M343.31,304.23l-12.85,2.98l-5.85-5.85l3.27-12.59c0.16-0.64,0.96-0.86,1.43-0.39l14.41,14.41
		C344.2,303.26,343.96,304.07,343.31,304.23z"/>
	<linearGradient id="SVGID_12_" gradientUnits="userSpaceOnUse" x1="438.573" y1="220.5833" x2="362.7499" y2="273.7946">
		<stop  offset="0.4756" style="stop-color:#662D91"/>
		<stop  offset="0.6223" style="stop-color:#5D5FAA"/>
		<stop  offset="0.7533" style="stop-color:#507EC0"/>
		<stop  offset="0.8638" style="stop-color:#4096D2"/>
		<stop  offset="0.9495" style="stop-color:#30A4DD"/>
		<stop  offset="1" style="stop-color:#27AAE1"/>
	</linearGradient>
	<path class="st11" d="M406.32,265.41c-6.09-6.08-15.95-6.08-22.03,0l-6.46,6.47l-29.13,29.13c-0.87,0.87-2.28,0.87-3.15,0
		l-14.39-14.39c-0.87-0.87-0.87-2.28,0-3.15L362.75,252c8.33-8.3,21.81-8.3,30.14,0L406.32,265.41z"/>
	<path class="st12" d="M427.02,286.11c0.08,0.08-3.86,3.06-8.3,6.37c-0.81-0.48-1.87-0.38-2.57,0.33c-0.54,0.54-0.72,1.29-0.56,1.98
		c-0.01,0.01-0.01,0.01-0.02,0.01c-4.37,3.24-8.41,6.22-8.78,6.53l17.74-17.69C424.53,283.64,426.84,285.93,427.02,286.11z"/>
	<path class="st13" d="M390.62,266.45c-0.75,0.56-1.51,1.13-2.27,1.68c-0.04-0.14-0.06-0.27-0.06-0.42c0-0.39,0.15-0.77,0.44-1.07
		C389.24,266.13,390.04,266.06,390.62,266.45z"/>
	<path class="st13" d="M396,271.78c-0.59-0.59-0.59-1.55,0-2.14l0.85-0.85c0.59-0.59,0.59-1.55,0-2.14
		c-0.29-0.29-0.68-0.44-1.06-0.44c-0.39,0-0.78,0.14-1.07,0.44l-0.86,0.86c-0.59,0.59-1.55,0.59-2.14,0l-0.86-0.86
		c-0.08-0.08-0.15-0.14-0.24-0.19c0,0,0-0.01-0.01,0c-0.75,0.56-1.51,1.13-2.27,1.68c0.07,0.24,0.2,0.46,0.38,0.66l0.85,0.85
		c0.59,0.59,0.59,1.55,0,2.14l-0.85,0.85c-0.59,0.59-0.59,1.55,0,2.14c0.29,0.29,0.68,0.44,1.07,0.44c0.38,0,0.77-0.14,1.06-0.44
		l0.86-0.86c0.59-0.59,1.55-0.59,2.14,0l0.86,0.86c0.59,0.59,1.55,0.59,2.14,0c0.3-0.3,0.44-0.68,0.44-1.07s-0.14-0.77-0.44-1.07
		L396,271.78z M394.05,271.97c-0.7,0.7-1.82,0.7-2.52,0c-0.7-0.7-0.7-1.82,0-2.52c0.7-0.7,1.82-0.7,2.52,0
		C394.75,270.15,394.75,271.27,394.05,271.97z"/>
	<linearGradient id="SVGID_13_" gradientUnits="userSpaceOnUse" x1="362.9893" y1="287.4492" x2="333.7658" y2="322.1521">
		<stop  offset="0" style="stop-color:#9F2A38"/>
		<stop  offset="0.4426" style="stop-color:#C74949"/>
		<stop  offset="0.7932" style="stop-color:#E35D55"/>
		<stop  offset="1" style="stop-color:#F2665A"/>
	</linearGradient>
	<polygon class="st14" points="366.16,283.64 351.85,304.15 348.59,301.07 	"/>
	
		<linearGradient id="SVGID_14_" gradientUnits="userSpaceOnUse" x1="117.8863" y1="500.4748" x2="180.2151" y2="455.0141" gradientTransform="matrix(1.2736 -0.2736 -0.2736 1.2736 270.712 -270.712)">
		<stop  offset="0.1481" style="stop-color:#262262"/>
		<stop  offset="0.3864" style="stop-color:#2B4F83;stop-opacity:0.7203"/>
		<stop  offset="0.5992" style="stop-color:#2F71A4;stop-opacity:0.4704"/>
		<stop  offset="0.7787" style="stop-color:#2E8DC1;stop-opacity:0.2597"/>
		<stop  offset="0.918" style="stop-color:#2AA1D6;stop-opacity:0.0963"/>
		<stop  offset="1" style="stop-color:#27AAE1;stop-opacity:0"/>
	</linearGradient>
	<polygon class="st15" points="341.94,297.43 334.76,290.25 376.43,248.58 383.6,255.76 	"/>
	<linearGradient id="SVGID_15_" gradientUnits="userSpaceOnUse" x1="333.7615" y1="299.1101" x2="323.9281" y2="307.2794">
		<stop  offset="0" style="stop-color:#262262"/>
		<stop  offset="0.4699" style="stop-color:#2E6194"/>
		<stop  offset="0.8337" style="stop-color:#2D92C6"/>
		<stop  offset="1" style="stop-color:#27AAE1"/>
	</linearGradient>
	<path class="st16" d="M330.46,307.21l-4.01,0.93c-1.75,0.41-3.29-1.17-2.85-2.91l1-3.88L330.46,307.21z"/>
	<g>
		<path class="st13" d="M325.88,273.07c-0.18,0-0.36-0.07-0.5-0.21c-0.27-0.27-0.27-0.72,0-0.99l6.74-6.74
			c0.27-0.27,0.72-0.27,0.99,0c0.27,0.27,0.27,0.72,0,0.99l-6.74,6.74C326.24,273,326.06,273.07,325.88,273.07z"/>
	</g>
	<g>
		<path class="st13" d="M328.84,276.03c-0.18,0-0.36-0.07-0.5-0.21c-0.27-0.27-0.27-0.72,0-0.99l11.13-11.13
			c0.27-0.27,0.72-0.27,0.99,0c0.27,0.27,0.27,0.72,0,0.99l-11.13,11.13C329.2,275.96,329.02,276.03,328.84,276.03z"/>
	</g>
	<linearGradient id="SVGID_16_" gradientUnits="userSpaceOnUse" x1="384.2776" y1="304.4659" x2="400.4988" y2="292.6346">
		<stop  offset="0" style="stop-color:#D83D4F;stop-opacity:0"/>
		<stop  offset="7.632374e-03" style="stop-color:#D94450;stop-opacity:0.0207"/>
		<stop  offset="0.0583" style="stop-color:#E16658;stop-opacity:0.1581"/>
		<stop  offset="0.1113" style="stop-color:#E87D5E;stop-opacity:0.3019"/>
		<stop  offset="0.1665" style="stop-color:#EF8F64;stop-opacity:0.4518"/>
		<stop  offset="0.225" style="stop-color:#F49C67;stop-opacity:0.6106"/>
		<stop  offset="0.2889" style="stop-color:#F8A46A;stop-opacity:0.7841"/>
		<stop  offset="0.3685" style="stop-color:#F9A66B"/>
	</linearGradient>
	<path class="st17" d="M377.9,295.33c2.09,1.95,4.15,3.93,6.2,5.92c0.51,0.51,1.04,0.97,1.57,1.44c0.25,0.25,0.56,0.43,0.84,0.64
		c0.29,0.2,0.56,0.43,0.87,0.6l0.91,0.53c0.31,0.17,0.64,0.3,0.96,0.45l0.48,0.22l0.5,0.17c0.33,0.11,0.66,0.24,1,0.33
		c1.35,0.39,2.76,0.57,4.17,0.6c1.41-0.01,2.81-0.22,4.18-0.57c1.35-0.4,2.67-0.94,3.88-1.69c0.32-0.16,0.59-0.39,0.89-0.59
		c0.29-0.2,0.59-0.4,0.85-0.64l0.81-0.7c0.27-0.24,0.52-0.49,0.79-0.73c-0.95,1.06-2.03,2.03-3.22,2.84c-1.2,0.8-2.53,1.39-3.9,1.84
		c-1.39,0.42-2.83,0.61-4.28,0.65c-1.45-0.02-2.9-0.19-4.3-0.58c-0.35-0.1-0.69-0.24-1.03-0.35l-0.51-0.18l-0.49-0.23
		c-0.33-0.16-0.66-0.3-0.98-0.47l-0.93-0.56c-0.32-0.17-0.59-0.41-0.89-0.62c-0.29-0.22-0.6-0.41-0.85-0.67l-0.8-0.73
		c-0.26-0.25-0.5-0.51-0.76-0.76C381.85,299.46,379.86,297.41,377.9,295.33z"/>
	<linearGradient id="SVGID_17_" gradientUnits="userSpaceOnUse" x1="384.2776" y1="262.7169" x2="400.4988" y2="274.5482">
		<stop  offset="0" style="stop-color:#2B3990;stop-opacity:0"/>
		<stop  offset="0.011" style="stop-color:#274192;stop-opacity:0.0299"/>
		<stop  offset="0.048" style="stop-color:#1B599E;stop-opacity:0.1306"/>
		<stop  offset="0.0867" style="stop-color:#0B6BA9;stop-opacity:0.2362"/>
		<stop  offset="0.1265" style="stop-color:#007BB4;stop-opacity:0.3446"/>
		<stop  offset="0.1677" style="stop-color:#0088BD;stop-opacity:0.4566"/>
		<stop  offset="0.2105" style="stop-color:#0092C4;stop-opacity:0.5734"/>
		<stop  offset="0.2559" style="stop-color:#0099C9;stop-opacity:0.6969"/>
		<stop  offset="0.3055" style="stop-color:#009DCC;stop-opacity:0.832"/>
		<stop  offset="0.3672" style="stop-color:#009ECC"/>
	</linearGradient>
	<path class="st18" d="M377.9,271.85c1.96-2.08,3.95-4.13,5.95-6.17c0.25-0.25,0.49-0.52,0.76-0.76l0.8-0.73
		c0.26-0.26,0.57-0.45,0.85-0.67c0.3-0.21,0.57-0.45,0.89-0.62l0.93-0.56c0.32-0.18,0.65-0.31,0.98-0.47l0.49-0.23l0.51-0.18
		c0.34-0.12,0.68-0.25,1.03-0.35c1.4-0.39,2.85-0.56,4.3-0.58c1.45,0.04,2.89,0.23,4.28,0.65c1.37,0.46,2.7,1.04,3.9,1.84
		c1.19,0.81,2.26,1.78,3.22,2.84c-0.26-0.24-0.52-0.49-0.79-0.73l-0.81-0.7c-0.26-0.24-0.56-0.43-0.85-0.64
		c-0.3-0.19-0.57-0.43-0.89-0.59c-1.21-0.75-2.53-1.29-3.88-1.69c-1.37-0.35-2.77-0.55-4.18-0.57c-1.41,0.03-2.81,0.22-4.17,0.6
		c-0.34,0.09-0.67,0.22-1,0.33l-0.5,0.17l-0.48,0.22c-0.32,0.15-0.65,0.28-0.96,0.45l-0.91,0.53c-0.31,0.16-0.58,0.4-0.87,0.6
		c-0.28,0.21-0.58,0.4-0.84,0.64c-0.53,0.47-1.06,0.93-1.57,1.44C382.05,267.92,379.99,269.91,377.9,271.85z"/>
	<circle class="st13" cx="423.21" cy="294.3" r="2.12"/>
	<circle class="st13" cx="417.65" cy="299.86" r="2.12"/>
	<path class="st13" d="M419.15,295.79c-0.83,0.83-2.17,0.83-3,0c-0.29-0.29-0.48-0.64-0.56-1.01c0.75-0.55,1.51-1.11,2.25-1.67h0.01
		c0.29-0.22,0.58-0.43,0.87-0.64c0.16,0.09,0.3,0.2,0.43,0.33C419.98,293.63,419.98,294.97,419.15,295.79z"/>
	<circle class="st13" cx="423.21" cy="299.86" r="2.12"/>
	<path class="st19" d="M418.72,292.48c-0.29,0.21-0.57,0.42-0.87,0.64h-0.01c-0.74,0.55-1.5,1.12-2.25,1.67
		c-0.16-0.69,0.02-1.44,0.56-1.98C416.85,292.1,417.91,291.99,418.72,292.48z"/>
	<g>
		<g>
			<path class="st13" d="M419.53,281.38c-0.14,0.46-0.71,0.66-1.09,0.36c-0.02-0.02-0.05-0.04-0.07-0.06l-9.3-9.3
				c-0.01-0.01-0.02-0.02-0.03-0.03c-0.34-0.38-0.14-0.98,0.34-1.12l12.97-3.72c0.12-0.03,0.25-0.04,0.37,0
				c0.24,0.07,0.56,0.25,0.56,0.76C423.29,268.97,420.11,279.47,419.53,281.38z"/>
		</g>
	</g>
</g>
<linearGradient id="SVGID_18_" gradientUnits="userSpaceOnUse" x1="-581.7413" y1="263.581" x2="-559.767" y2="241.0897">
	<stop  offset="0.248" style="stop-color:#D83D4F"/>
	<stop  offset="0.3905" style="stop-color:#E06056"/>
	<stop  offset="0.5802" style="stop-color:#EB8260"/>
	<stop  offset="0.7285" style="stop-color:#F49666"/>
	<stop  offset="0.8159" style="stop-color:#F89E68"/>
</linearGradient>
<path class="st20" d="M-553.76,266.87l-9.82,9.82c-9.24,9.24-24.22,9.24-33.45,0l-10.62-10.62c-2.18-2.18-2.18-5.7,0-7.88
	l18.67-18.67c2.18-2.18,5.7-2.18,7.88,0L-553.76,266.87z"/>
<linearGradient id="SVGID_19_" gradientUnits="userSpaceOnUse" x1="-592.7275" y1="275.2858" x2="-560.6752" y2="242.7773">
	<stop  offset="0.248" style="stop-color:#D83D4F"/>
	<stop  offset="0.3905" style="stop-color:#E06056"/>
	<stop  offset="0.5802" style="stop-color:#EB8260"/>
	<stop  offset="0.7285" style="stop-color:#F49666"/>
	<stop  offset="0.8159" style="stop-color:#F89E68"/>
</linearGradient>
<path class="st21" d="M-553.76,272.17l-9.82,9.82c-9.24,9.24-24.22,9.24-33.45,0l-15.32-15.32c-2.18-2.18-2.18-5.7,0-7.88
	l18.67-18.67c2.18-2.18,5.7-2.18,7.88,0L-553.76,272.17z"/>
<linearGradient id="SVGID_20_" gradientUnits="userSpaceOnUse" x1="-505.2726" y1="300.9103" x2="-477.1783" y2="274.5449">
	<stop  offset="0" style="stop-color:#D83D4F"/>
	<stop  offset="0.2509" style="stop-color:#E06056"/>
	<stop  offset="0.585" style="stop-color:#EB8260"/>
	<stop  offset="0.8461" style="stop-color:#F49666"/>
	<stop  offset="1" style="stop-color:#F89E68"/>
</linearGradient>
<path class="st22" d="M-449.52,301.09c0,4.91-1.87,9.82-5.62,13.57c-2.21,2.21-4.83,3.74-7.63,4.6l-0.18,0.05
	c-6.04,1.78-12.82,0.41-17.75-4.12c-0.23-0.22-0.47-0.44-0.69-0.66l-49.63-49.64l9.82-9.83c9.24-9.24,24.21-9.24,33.46,0
	l32.91,32.91c0.85,0.86,1.61,1.77,2.26,2.74c0.13,0.2,0.26,0.4,0.38,0.61C-450.41,294.32-449.52,297.7-449.52,301.09z"/>
<linearGradient id="SVGID_21_" gradientUnits="userSpaceOnUse" x1="-534.1617" y1="236.4178" x2="-447.2841" y2="321.1661">
	<stop  offset="0" style="stop-color:#262262"/>
	<stop  offset="0.2797" style="stop-color:#2B4F83"/>
	<stop  offset="0.5296" style="stop-color:#2F71A4"/>
	<stop  offset="0.7403" style="stop-color:#2E8DC1"/>
	<stop  offset="0.9037" style="stop-color:#2AA1D6"/>
	<stop  offset="1" style="stop-color:#27AAE1"/>
</linearGradient>
<path class="st23" d="M-454.83,314.53c-2.29,2.29-5.03,3.87-7.94,4.73l-0.18,0.05c-1.68,0.48-3.42,0.72-5.16,0.72
	c-4.51,0-9.02-1.61-12.58-4.83c-0.23-0.22-0.47-0.44-0.69-0.66l-49.63-49.64l9.82-9.83c9.24-9.24,24.21-9.24,33.46,0l32.91,32.91
	c0.85,0.86,1.61,1.77,2.26,2.74c0.13,0.2,0.26,0.4,0.38,0.61C-447.65,298.57-448.54,308.23-454.83,314.53z"/>
<linearGradient id="SVGID_22_" gradientUnits="userSpaceOnUse" x1="-478.8745" y1="376.6494" x2="-536.0399" y2="254.1069">
	<stop  offset="0.248" style="stop-color:#D83D4F"/>
	<stop  offset="0.3905" style="stop-color:#E06056"/>
	<stop  offset="0.5802" style="stop-color:#EB8260"/>
	<stop  offset="0.7285" style="stop-color:#F49666"/>
	<stop  offset="0.8159" style="stop-color:#F89E68"/>
</linearGradient>
<path class="st24" d="M-617.21,259.68c-2.18,2.18-2.18,5.71,0.01,7.89l63.3,63.1c12.65,12.61,33.13,12.61,45.78,0l62.22-62.02
	c2.41-2.4,2.41-6.3,0.01-8.7L-463.85,242c-2.4-2.4-6.29-2.4-8.69,0l-58.47,58.47l-59.55-59.55c-2.18-2.18-5.7-2.18-7.88,0
	L-617.21,259.68z"/>
<linearGradient id="SVGID_23_" gradientUnits="userSpaceOnUse" x1="-416.9459" y1="288.6294" x2="-498.0519" y2="209.7619" gradientTransform="matrix(-1 0 0 1 -949.0112 38.1488)">
	<stop  offset="0.248" style="stop-color:#D83D4F"/>
	<stop  offset="0.3905" style="stop-color:#E06056"/>
	<stop  offset="0.5802" style="stop-color:#EB8260"/>
	<stop  offset="0.7285" style="stop-color:#F49666"/>
	<stop  offset="0.8159" style="stop-color:#F89E68"/>
</linearGradient>
<path class="st25" d="M-530.91,300.52l9.82,9.82c9.24,9.24,24.22,9.24,33.45,0l42.87-42.87c2.18-2.18,2.18-5.7,0-7.88l-18.67-18.67
	c-2.18-2.18-5.7-2.18-7.88,0L-530.91,300.52z"/>
<linearGradient id="SVGID_24_" gradientUnits="userSpaceOnUse" x1="-578.3864" y1="290.3851" x2="-601.566" y2="306.6522">
	<stop  offset="0" style="stop-color:#262262"/>
	<stop  offset="0.2797" style="stop-color:#2B4F83"/>
	<stop  offset="0.5296" style="stop-color:#2F71A4"/>
	<stop  offset="0.7403" style="stop-color:#2E8DC1"/>
	<stop  offset="0.9037" style="stop-color:#2AA1D6"/>
	<stop  offset="1" style="stop-color:#27AAE1"/>
</linearGradient>
<path class="st26" d="M-583.45,314.04l-19.52,4.53l-8.89-8.89l4.97-19.12c0.25-0.97,1.46-1.31,2.18-0.59l21.89,21.88
	C-582.1,312.57-582.45,313.81-583.45,314.04z"/>
<linearGradient id="SVGID_25_" gradientUnits="userSpaceOnUse" x1="-438.7443" y1="186.9837" x2="-553.9177" y2="267.8104">
	<stop  offset="0.4756" style="stop-color:#662D91"/>
	<stop  offset="0.6223" style="stop-color:#5D5FAA"/>
	<stop  offset="0.7533" style="stop-color:#507EC0"/>
	<stop  offset="0.8638" style="stop-color:#4096D2"/>
	<stop  offset="0.9495" style="stop-color:#30A4DD"/>
	<stop  offset="1" style="stop-color:#27AAE1"/>
</linearGradient>
<path class="st27" d="M-487.74,255.07c-9.25-9.24-24.22-9.24-33.46,0l-9.82,9.83l-44.24,44.25c-1.32,1.32-3.46,1.32-4.78,0
	l-21.86-21.86c-1.32-1.32-1.32-3.47,0-4.79l47.98-47.8c12.66-12.61,33.13-12.61,45.78,0L-487.74,255.07z"/>
<path class="st12" d="M-456.29,286.52c0.12,0.12-5.87,4.64-12.6,9.67c-1.23-0.74-2.84-0.57-3.9,0.5c-0.82,0.82-1.1,1.96-0.85,3.01
	c-0.01,0.01-0.02,0.01-0.03,0.02c-6.63,4.92-12.77,9.44-13.34,9.92l26.94-26.87C-460.08,282.76-456.57,286.24-456.29,286.52z"/>
<path class="st13" d="M-511.59,256.66c-1.14,0.85-2.3,1.71-3.45,2.55c-0.06-0.21-0.09-0.41-0.09-0.63c0-0.59,0.23-1.17,0.67-1.63
	C-513.68,256.17-512.47,256.07-511.59,256.66z"/>
<path class="st13" d="M-503.41,264.76c-0.9-0.9-0.9-2.35,0-3.25l1.3-1.3c0.9-0.9,0.9-2.35,0-3.25c-0.45-0.45-1.04-0.66-1.62-0.66
	c-0.59,0-1.18,0.22-1.63,0.66l-1.31,1.31c-0.89,0.89-2.35,0.89-3.24,0l-1.31-1.31c-0.11-0.11-0.23-0.21-0.36-0.29c0,0,0-0.01-0.01,0
	c-1.14,0.85-2.3,1.71-3.45,2.55c0.1,0.36,0.3,0.7,0.58,1l1.3,1.3c0.9,0.9,0.9,2.35,0,3.25l-1.3,1.3c-0.9,0.9-0.9,2.35,0,3.25
	c0.45,0.45,1.04,0.66,1.63,0.66c0.58,0,1.17-0.22,1.62-0.66l1.31-1.31c0.89-0.89,2.35-0.89,3.24,0l1.31,1.31
	c0.89,0.89,2.35,0.89,3.24,0c0.46-0.46,0.67-1.04,0.67-1.63s-0.22-1.17-0.67-1.63L-503.41,264.76z M-506.37,265.04
	c-1.06,1.06-2.77,1.06-3.83,0s-1.06-2.77,0-3.83c1.06-1.06,2.77-1.06,3.83,0C-505.31,262.27-505.31,263.98-506.37,265.04z"/>
<linearGradient id="SVGID_26_" gradientUnits="userSpaceOnUse" x1="-553.554" y1="288.5513" x2="-597.9439" y2="341.2643">
	<stop  offset="0" style="stop-color:#9F2A38"/>
	<stop  offset="0.4426" style="stop-color:#C74949"/>
	<stop  offset="0.7932" style="stop-color:#E35D55"/>
	<stop  offset="1" style="stop-color:#F2665A"/>
</linearGradient>
<polygon class="st28" points="-548.73,282.76 -570.47,313.92 -575.42,309.24 "/>
<linearGradient id="SVGID_27_" gradientUnits="userSpaceOnUse" x1="-665.8544" y1="352.1268" x2="-571.1782" y2="283.073" gradientTransform="matrix(1.2736 -0.2736 -0.2736 1.2736 270.712 -270.712)">
	<stop  offset="0.1481" style="stop-color:#262262"/>
	<stop  offset="0.3864" style="stop-color:#2B4F83;stop-opacity:0.7203"/>
	<stop  offset="0.5992" style="stop-color:#2F71A4;stop-opacity:0.4704"/>
	<stop  offset="0.7787" style="stop-color:#2E8DC1;stop-opacity:0.2597"/>
	<stop  offset="0.918" style="stop-color:#2AA1D6;stop-opacity:0.0963"/>
	<stop  offset="1" style="stop-color:#27AAE1;stop-opacity:0"/>
</linearGradient>
<polygon class="st29" points="-585.53,303.7 -596.43,292.8 -533.14,229.51 -522.24,240.41 "/>
<linearGradient id="SVGID_28_" gradientUnits="userSpaceOnUse" x1="-597.9504" y1="306.2641" x2="-612.8871" y2="318.6731">
	<stop  offset="0" style="stop-color:#262262"/>
	<stop  offset="0.4699" style="stop-color:#2E6194"/>
	<stop  offset="0.8337" style="stop-color:#2D92C6"/>
	<stop  offset="1" style="stop-color:#27AAE1"/>
</linearGradient>
<path class="st30" d="M-602.97,318.57l-6.09,1.41c-2.65,0.62-5-1.78-4.32-4.42l1.52-5.89L-602.97,318.57z"/>
<g>
	<path class="st13" d="M-609.92,266.71c-0.27,0-0.55-0.1-0.76-0.31c-0.42-0.42-0.42-1.09,0-1.51l10.24-10.24
		c0.42-0.42,1.09-0.42,1.51,0c0.42,0.42,0.42,1.09,0,1.51l-10.24,10.24C-609.38,266.6-609.65,266.71-609.92,266.71z"/>
</g>
<g>
	<path class="st13" d="M-605.43,271.2c-0.27,0-0.55-0.1-0.76-0.31c-0.42-0.42-0.42-1.09,0-1.51l16.9-16.9
		c0.42-0.42,1.09-0.42,1.51,0c0.42,0.42,0.42,1.09,0,1.51l-16.9,16.9C-604.88,271.1-605.16,271.2-605.43,271.2z"/>
</g>
<g>
	<linearGradient id="SVGID_29_" gradientUnits="userSpaceOnUse" x1="-580.1991" y1="318.9598" x2="-580.1991" y2="376.0847">
		<stop  offset="0.248" style="stop-color:#D83D4F"/>
		<stop  offset="0.3905" style="stop-color:#E06056"/>
		<stop  offset="0.5802" style="stop-color:#EB8260"/>
		<stop  offset="0.7285" style="stop-color:#F49666"/>
		<stop  offset="0.8159" style="stop-color:#F89E68"/>
	</linearGradient>
	<path class="st31" d="M-564.56,359.97c0.04,0.43,0.06,0.86,0.06,1.29c0,2.16-0.41,4.19-1.23,6.1c-0.82,1.91-1.94,3.58-3.36,5
		c-1.42,1.42-3.09,2.54-5,3.36c-1.91,0.82-3.95,1.23-6.1,1.23s-4.19-0.41-6.1-1.23c-1.91-0.82-3.58-1.94-5-3.36s-2.54-3.09-3.36-5
		c-0.82-1.91-1.23-3.95-1.23-6.1c0-2.16,0.41-4.19,1.23-6.1c0.82-1.91,1.94-3.58,3.36-5c1.42-1.42,3.09-2.54,5-3.36
		c1.91-0.82,3.95-1.23,6.1-1.23c2.19,0,4.23,0.41,6.12,1.23s3.55,1.95,4.96,3.39l-3.62,3.67c-1.01-1.01-2.15-1.78-3.43-2.31
		c-1.28-0.53-2.62-0.8-4.03-0.8c-1.41,0-2.75,0.27-4.01,0.8c-1.27,0.53-2.4,1.3-3.41,2.31c-1.01,1.01-1.78,2.14-2.31,3.41
		c-0.53,1.27-0.8,2.6-0.8,4.01c0,1.41,0.27,2.75,0.8,4.03c0.53,1.28,1.3,2.42,2.31,3.43c1.01,1.01,2.14,1.77,3.41,2.29
		c1.27,0.52,2.6,0.78,4.01,0.78c1.41,0,2.75-0.26,4.03-0.78c1.28-0.52,2.42-1.28,3.43-2.29c1.35-1.41,2.27-3.03,2.76-4.88h-13.98
		l1.29-5.18h17.94C-564.66,359.11-564.61,359.54-564.56,359.97z"/>
	<linearGradient id="SVGID_30_" gradientUnits="userSpaceOnUse" x1="-542.0243" y1="318.9598" x2="-542.0243" y2="376.0847">
		<stop  offset="0.248" style="stop-color:#D83D4F"/>
		<stop  offset="0.3905" style="stop-color:#E06056"/>
		<stop  offset="0.5802" style="stop-color:#EB8260"/>
		<stop  offset="0.7285" style="stop-color:#F49666"/>
		<stop  offset="0.8159" style="stop-color:#F89E68"/>
	</linearGradient>
	<path class="st32" d="M-530.64,354.8v21.61h-5.18v-10.78c0-1.72-0.6-3.19-1.81-4.4c-1.21-1.21-2.67-1.81-4.4-1.81
		c-0.83,0-1.63,0.16-2.39,0.47c-0.76,0.32-1.43,0.76-2.01,1.34c-1.21,1.21-1.81,2.67-1.81,4.4c0,1.7,0.6,3.15,1.81,4.36
		c0.58,0.6,1.24,1.06,2.01,1.36c0.76,0.3,1.56,0.45,2.39,0.45c0.86,0,1.64-0.14,2.33-0.43l1.85,4.62c-1.32,0.66-2.86,0.99-4.62,0.99
		c-1.58,0-3.04-0.29-4.38-0.88c-1.34-0.59-2.5-1.4-3.47-2.44s-1.74-2.24-2.29-3.62c-0.55-1.38-0.82-2.85-0.82-4.4
		c0-1.58,0.27-3.06,0.82-4.44c0.55-1.38,1.31-2.59,2.29-3.62c0.98-1.04,2.14-1.85,3.47-2.44c1.34-0.59,2.8-0.88,4.38-0.88
		c1.41,0,2.66,0.22,3.75,0.65c1.09,0.43,2.06,0.98,2.89,1.64v-1.72H-530.64z"/>
	<linearGradient id="SVGID_31_" gradientUnits="userSpaceOnUse" x1="-512.7792" y1="318.9598" x2="-512.7792" y2="376.0847">
		<stop  offset="0.248" style="stop-color:#D83D4F"/>
		<stop  offset="0.3905" style="stop-color:#E06056"/>
		<stop  offset="0.5802" style="stop-color:#EB8260"/>
		<stop  offset="0.7285" style="stop-color:#F49666"/>
		<stop  offset="0.8159" style="stop-color:#F89E68"/>
	</linearGradient>
	<path class="st33" d="M-510.56,354.84c1.02-0.43,2.18-0.65,3.47-0.65v5.18c-1.73,0-3.19,0.6-4.4,1.81
		c-1.21,1.27-1.81,2.73-1.81,4.4v10.83h-5.18v-10.83V354.8h5.18v1.68C-512.49,355.82-511.58,355.27-510.56,354.84z"/>
	<linearGradient id="SVGID_32_" gradientUnits="userSpaceOnUse" x1="-486.1649" y1="318.9598" x2="-486.1649" y2="376.0847">
		<stop  offset="0.248" style="stop-color:#D83D4F"/>
		<stop  offset="0.3905" style="stop-color:#E06056"/>
		<stop  offset="0.5802" style="stop-color:#EB8260"/>
		<stop  offset="0.7285" style="stop-color:#F49666"/>
		<stop  offset="0.8159" style="stop-color:#F89E68"/>
	</linearGradient>
	<path class="st34" d="M-474.78,354.8v21.61h-5.18v-10.78c0-1.72-0.6-3.19-1.81-4.4c-1.21-1.21-2.67-1.81-4.4-1.81
		c-0.83,0-1.63,0.16-2.39,0.47c-0.76,0.32-1.43,0.76-2.01,1.34c-1.21,1.21-1.81,2.67-1.81,4.4c0,1.7,0.6,3.15,1.81,4.36
		c0.58,0.6,1.24,1.06,2.01,1.36c0.76,0.3,1.56,0.45,2.39,0.45c0.86,0,1.64-0.14,2.33-0.43l1.85,4.62c-1.32,0.66-2.86,0.99-4.62,0.99
		c-1.58,0-3.04-0.29-4.38-0.88c-1.34-0.59-2.5-1.4-3.47-2.44s-1.74-2.24-2.29-3.62c-0.55-1.38-0.82-2.85-0.82-4.4
		c0-1.58,0.27-3.06,0.82-4.44c0.55-1.38,1.31-2.59,2.29-3.62c0.98-1.04,2.14-1.85,3.47-2.44c1.34-0.59,2.8-0.88,4.38-0.88
		c1.41,0,2.66,0.22,3.75,0.65c1.09,0.43,2.06,0.98,2.89,1.64v-1.72H-474.78z"/>
</g>
<linearGradient id="SVGID_33_" gradientUnits="userSpaceOnUse" x1="-521.2177" y1="314.3993" x2="-496.578" y2="296.4279">
	<stop  offset="0" style="stop-color:#D83D4F;stop-opacity:0"/>
	<stop  offset="7.632374e-03" style="stop-color:#D94450;stop-opacity:0.0207"/>
	<stop  offset="0.0583" style="stop-color:#E16658;stop-opacity:0.1581"/>
	<stop  offset="0.1113" style="stop-color:#E87D5E;stop-opacity:0.3019"/>
	<stop  offset="0.1665" style="stop-color:#EF8F64;stop-opacity:0.4518"/>
	<stop  offset="0.225" style="stop-color:#F49C67;stop-opacity:0.6106"/>
	<stop  offset="0.2889" style="stop-color:#F8A46A;stop-opacity:0.7841"/>
	<stop  offset="0.3685" style="stop-color:#F9A66B"/>
</linearGradient>
<path class="st35" d="M-530.91,300.52c3.18,2.96,6.31,5.97,9.42,8.99c0.77,0.77,1.58,1.48,2.38,2.19c0.38,0.38,0.84,0.66,1.27,0.98
	c0.44,0.3,0.85,0.66,1.32,0.9l1.39,0.81c0.47,0.26,0.97,0.45,1.45,0.68l0.73,0.33l0.76,0.26c0.51,0.17,1.01,0.36,1.52,0.5
	c2.06,0.59,4.19,0.87,6.33,0.92c2.14-0.02,4.27-0.33,6.35-0.86c2.05-0.61,4.06-1.43,5.89-2.57c0.48-0.25,0.89-0.6,1.35-0.89
	c0.44-0.31,0.9-0.6,1.3-0.97l1.23-1.06c0.41-0.36,0.8-0.74,1.2-1.1c-1.45,1.62-3.08,3.08-4.89,4.32c-1.82,1.22-3.84,2.11-5.93,2.8
	c-2.11,0.63-4.3,0.93-6.5,0.98c-2.2-0.03-4.4-0.29-6.53-0.88c-0.53-0.15-1.04-0.36-1.56-0.53l-0.78-0.28l-0.75-0.35
	c-0.49-0.24-1.01-0.45-1.49-0.72l-1.42-0.84c-0.49-0.26-0.9-0.63-1.35-0.94c-0.43-0.34-0.9-0.63-1.3-1.02l-1.22-1.11
	c-0.4-0.37-0.76-0.77-1.15-1.16C-524.9,306.8-527.93,303.69-530.91,300.52z"/>
<linearGradient id="SVGID_34_" gradientUnits="userSpaceOnUse" x1="-521.2177" y1="250.9837" x2="-496.578" y2="268.9551">
	<stop  offset="0" style="stop-color:#2B3990;stop-opacity:0"/>
	<stop  offset="0.011" style="stop-color:#274192;stop-opacity:0.0299"/>
	<stop  offset="0.048" style="stop-color:#1B599E;stop-opacity:0.1306"/>
	<stop  offset="0.0867" style="stop-color:#0B6BA9;stop-opacity:0.2362"/>
	<stop  offset="0.1265" style="stop-color:#007BB4;stop-opacity:0.3446"/>
	<stop  offset="0.1677" style="stop-color:#0088BD;stop-opacity:0.4566"/>
	<stop  offset="0.2105" style="stop-color:#0092C4;stop-opacity:0.5734"/>
	<stop  offset="0.2559" style="stop-color:#0099C9;stop-opacity:0.6969"/>
	<stop  offset="0.3055" style="stop-color:#009DCC;stop-opacity:0.832"/>
	<stop  offset="0.3672" style="stop-color:#009ECC"/>
</linearGradient>
<path class="st36" d="M-530.91,264.86c2.97-3.17,6-6.28,9.04-9.38c0.38-0.39,0.75-0.78,1.15-1.16l1.22-1.11
	c0.39-0.39,0.86-0.68,1.3-1.02c0.45-0.32,0.87-0.68,1.35-0.94l1.42-0.84c0.48-0.27,0.99-0.48,1.49-0.72l0.75-0.35l0.78-0.28
	c0.52-0.18,1.03-0.39,1.56-0.53c2.13-0.59,4.33-0.85,6.53-0.88c2.2,0.06,4.39,0.35,6.5,0.98c2.08,0.69,4.1,1.58,5.93,2.8
	c1.8,1.24,3.44,2.7,4.89,4.32c-0.4-0.37-0.79-0.75-1.2-1.1l-1.23-1.06c-0.4-0.37-0.85-0.66-1.3-0.97c-0.45-0.29-0.87-0.65-1.35-0.89
	c-1.83-1.14-3.84-1.95-5.89-2.57c-2.08-0.53-4.21-0.84-6.35-0.86c-2.14,0.05-4.27,0.33-6.33,0.92c-0.52,0.14-1.01,0.34-1.52,0.5
	l-0.76,0.26l-0.73,0.33c-0.48,0.23-0.98,0.43-1.45,0.68l-1.39,0.81c-0.48,0.25-0.88,0.6-1.32,0.9c-0.43,0.32-0.89,0.6-1.27,0.98
	c-0.8,0.71-1.61,1.41-2.38,2.19C-524.6,258.89-527.73,261.91-530.91,264.86z"/>
<circle class="st13" cx="-462.07" cy="298.96" r="3.22"/>
<circle class="st13" cx="-470.52" cy="307.4" r="3.22"/>
<path class="st13" d="M-468.24,301.22c-1.26,1.26-3.3,1.26-4.55,0c-0.44-0.44-0.73-0.97-0.85-1.53c1.14-0.83,2.29-1.69,3.42-2.53
	h0.01c0.45-0.33,0.88-0.65,1.32-0.97c0.24,0.13,0.46,0.3,0.65,0.5C-466.99,297.94-466.99,299.97-468.24,301.22z"/>
<circle class="st13" cx="-462.07" cy="307.4" r="3.22"/>
<path class="st19" d="M-468.9,296.19c-0.44,0.32-0.87,0.64-1.32,0.97h-0.01c-1.13,0.84-2.28,1.7-3.42,2.53
	c-0.25-1.05,0.03-2.19,0.85-3.01C-471.74,295.62-470.13,295.45-468.9,296.19z"/>
<g>
	<g>
		<path class="st13" d="M-467.67,279.33c-0.21,0.7-1.07,1-1.65,0.54c-0.04-0.03-0.07-0.06-0.1-0.09l-14.13-14.13
			c-0.02-0.02-0.03-0.03-0.05-0.05c-0.51-0.57-0.22-1.49,0.52-1.7l19.7-5.66c0.18-0.05,0.38-0.06,0.57-0.01
			c0.36,0.1,0.86,0.38,0.86,1.16C-461.96,260.49-466.79,276.43-467.67,279.33z"/>
	</g>
</g>
</svg>
