<?xml version="1.0" standalone="no"?>
<!DOCTYPE svg PUBLIC "-//W3C//DTD SVG 20010904//EN"
 "http://www.w3.org/TR/2001/REC-SVG-20010904/DTD/svg10.dtd">
<svg version="1.0" xmlns="http://www.w3.org/2000/svg"
 width="618.000000pt" height="464.000000pt" viewBox="0 0 618.000000 464.000000"
 preserveAspectRatio="xMidYMid meet">
<metadata>
Created by potrace 1.15, written by Peter Selinger 2001-2017
</metadata>
<g transform="translate(0.000000,464.000000) scale(0.100000,-0.100000)"
fill="#000000" stroke="none">
<path d="M4478 4193 c-18 -20 -52 -58 -75 -84 -24 -25 -43 -49 -43 -52 0 -4
21 -18 48 -31 216 -111 425 -337 568 -616 31 -60 41 -85 86 -205 32 -88 32
-89 8 90 -37 285 -163 569 -335 754 -60 65 -199 181 -215 181 -5 0 -24 -17
-42 -37z"/>
<path d="M3879 3953 c-51 -87 -151 -257 -221 -378 -70 -121 -132 -227 -138
-235 -41 -63 -78 -136 -72 -142 4 -4 39 -12 77 -18 39 -6 84 -15 100 -20 55
-17 290 -80 298 -80 4 0 -2 10 -15 23 -87 83 -144 247 -135 382 14 180 104
324 262 416 78 46 130 61 240 68 l90 6 -70 31 c-61 27 -129 52 -261 94 -17 6
-38 10 -46 10 -10 0 -51 -60 -109 -157z"/>
<path d="M4180 3913 c-14 -2 -29 -9 -34 -14 -6 -5 -16 -9 -24 -9 -22 0 -125
-66 -162 -103 -42 -42 -91 -119 -116 -182 -15 -39 -19 -74 -19 -160 1 -107 2
-112 39 -188 64 -129 141 -199 271 -248 71 -27 228 -32 286 -9 96 37 181 90
220 136 64 76 119 223 119 316 0 67 -34 182 -72 246 -40 66 -119 139 -184 171
-27 12 -58 28 -69 34 -21 11 -212 19 -255 10z m281 -71 c165 -79 252 -215 252
-395 0 -48 -4 -97 -10 -110 -42 -96 -75 -149 -118 -191 -86 -85 -218 -131
-341 -119 -53 5 -149 38 -175 60 -8 7 -20 13 -25 13 -5 0 -32 24 -60 54 -209
220 -130 594 146 695 82 29 88 30 181 27 71 -3 96 -9 150 -34z"/>
<path d="M4174 3641 c-35 -21 -67 -61 -111 -136 -50 -85 -49 -87 26 -129 75
-42 124 -69 232 -132 42 -24 82 -44 91 -44 8 0 21 15 30 33 15 33 14 57 -4 57
-19 0 -128 71 -128 84 0 22 55 66 82 66 15 0 29 -4 32 -9 3 -5 23 -12 43 -15
21 -4 45 -9 53 -11 10 -3 25 11 42 39 l27 44 -42 7 c-23 4 -48 12 -56 18 -7 6
-44 11 -82 11 -37 -1 -67 2 -64 6 2 3 -1 24 -6 47 -8 31 -19 45 -49 62 -47 26
-76 27 -116 2z m84 -97 c16 -11 22 -25 22 -50 0 -36 -26 -98 -38 -92 -44 19
-112 64 -112 72 0 15 28 57 48 74 21 16 53 15 80 -4z"/>
<path d="M4990 3814 c0 -3 9 -19 21 -35 l20 -29 252 0 c280 0 291 -2 302 -63
6 -31 -6 -119 -40 -292 -8 -44 -22 -116 -30 -160 -9 -44 -24 -127 -36 -185
-11 -58 -26 -141 -34 -185 -20 -113 -42 -226 -53 -271 -6 -22 -13 -64 -17 -94
-3 -30 -10 -68 -15 -85 -5 -16 -14 -59 -20 -95 -6 -36 -18 -99 -26 -140 -8
-41 -23 -124 -34 -185 -12 -60 -28 -146 -36 -190 -8 -44 -21 -114 -28 -155 -8
-41 -24 -124 -36 -185 -21 -106 -30 -155 -63 -330 -8 -44 -20 -105 -26 -135
-6 -30 -13 -72 -16 -94 -8 -48 -44 -86 -83 -86 -25 0 -124 28 -177 50 -11 5
-38 13 -60 19 -48 12 -254 75 -275 84 -8 4 -53 17 -100 31 -47 14 -98 29 -115
34 -16 5 -58 18 -93 28 -113 32 -131 83 -96 269 8 44 21 118 29 165 36 211 43
249 49 267 3 10 12 61 21 113 8 52 22 131 30 175 17 87 38 204 60 330 7 44 16
91 19 105 15 69 38 208 38 235 1 48 -14 135 -23 135 -5 0 -11 -12 -14 -27 -3
-16 -10 -44 -15 -63 -5 -19 -12 -62 -15 -95 -4 -33 -11 -73 -15 -90 -5 -16
-18 -84 -30 -150 -21 -123 -41 -233 -61 -340 -20 -105 -38 -207 -53 -300 -8
-49 -18 -101 -22 -115 -3 -14 -12 -63 -20 -110 -28 -166 -43 -246 -54 -300
-16 -75 -8 -130 26 -180 34 -49 72 -71 174 -100 41 -12 93 -28 115 -35 22 -8
74 -23 115 -35 41 -12 84 -25 95 -30 11 -5 31 -12 45 -15 59 -14 166 -47 182
-56 10 -5 24 -9 31 -9 8 0 63 -16 123 -35 60 -19 124 -35 142 -35 35 0 195 61
253 97 55 33 81 76 96 162 23 123 43 240 58 331 7 47 23 141 35 210 12 69 28
161 35 205 29 178 57 338 75 425 5 25 14 83 21 130 6 46 12 87 15 91 4 6 24
127 48 289 8 47 16 95 20 106 3 11 13 65 21 119 9 55 22 136 29 180 8 44 21
123 30 175 9 52 20 113 26 135 16 67 12 152 -9 193 -28 53 -168 187 -221 211
-42 19 -66 21 -317 21 -150 0 -273 -3 -273 -6z"/>
<path d="M5065 3643 c4 -10 11 -31 16 -48 64 -226 70 -263 94 -545 8 -96 19
-222 25 -280 5 -58 13 -193 17 -300 4 -128 9 -183 14 -160 19 87 69 356 89
474 6 33 14 76 20 95 5 20 14 63 20 96 12 73 45 251 66 360 56 297 55 306 -41
316 -33 4 -120 7 -194 8 -123 1 -133 0 -126 -16z"/>
<path d="M4795 3555 c35 -168 -21 -349 -146 -472 -75 -74 -211 -142 -281 -143
-16 0 -28 -4 -28 -10 0 -5 5 -10 10 -10 6 0 70 -29 143 -65 340 -166 569 -365
655 -570 11 -26 11 -19 6 55 -3 47 -7 105 -8 130 -13 212 -100 612 -165 765
-52 120 -141 287 -176 330 -16 19 -16 19 -10 -10z"/>
<path d="M2218 2501 c-1 -177 -2 -331 -2 -343 -1 -19 5 -24 31 -26 30 -3 32
-1 39 33 l6 36 27 -24 c40 -38 65 -47 126 -47 89 0 157 44 190 122 15 38 20
158 9 217 -10 50 -75 116 -129 131 -60 17 -142 0 -175 -35 -13 -14 -27 -25
-31 -25 -5 0 -10 62 -11 138 l-3 137 -37 3 -38 3 -2 -320z m282 24 c44 -23 70
-82 70 -158 0 -108 -46 -170 -128 -171 -93 -2 -135 43 -140 149 -2 41 2 87 10
110 24 73 116 107 188 70z"/>
<path d="M2937 2813 c-4 -3 -7 -159 -7 -345 l0 -338 40 0 40 0 0 345 0 345
-33 0 c-19 0 -37 -3 -40 -7z"/>
<path d="M4396 2545 c0 -145 3 -268 7 -271 4 -4 49 -18 99 -31 51 -12 109 -27
128 -33 19 -5 85 -21 145 -35 61 -14 121 -30 135 -34 59 -20 212 -53 218 -47
10 10 -44 152 -81 215 -68 115 -237 270 -407 373 -64 38 -233 128 -242 128 -2
0 -3 -119 -2 -265z"/>
<path d="M1005 2780 c-4 -7 -11 -71 -16 -143 -5 -73 -13 -190 -18 -262 -6 -71
-10 -156 -11 -187 l0 -58 34 0 c33 0 35 2 40 43 10 93 26 347 26 425 0 84 12
102 24 36 8 -40 143 -449 157 -476 11 -21 68 -25 73 -5 2 6 28 77 57 157 29
80 69 195 90 255 21 61 40 103 43 95 3 -8 10 -121 16 -250 5 -129 13 -245 16
-257 5 -18 14 -23 42 -23 l35 0 -7 108 c-3 59 -11 196 -16 305 -13 257 -10
247 -70 247 -45 0 -48 -2 -60 -32 -7 -18 -16 -42 -21 -53 -5 -11 -15 -40 -24
-65 -8 -25 -24 -70 -35 -100 -11 -30 -37 -107 -59 -170 -37 -109 -40 -113 -50
-87 -6 16 -11 33 -11 39 0 12 -36 129 -50 163 -5 11 -21 56 -36 100 -15 44
-37 107 -48 140 l-21 60 -47 3 c-27 2 -49 -2 -53 -8z"/>
<path d="M1852 2601 c-101 -26 -162 -115 -162 -238 0 -85 18 -130 72 -178 52
-47 73 -55 143 -55 113 0 184 48 219 150 41 117 -6 255 -104 305 -35 18 -124
27 -168 16z m112 -65 c52 -22 78 -67 84 -146 5 -80 -8 -127 -47 -164 -37 -36
-104 -45 -148 -22 -52 27 -78 80 -78 161 1 87 23 138 74 165 43 23 71 25 115
6z"/>
<path d="M3245 2598 c-92 -32 -145 -117 -145 -233 0 -97 31 -164 96 -205 44
-28 55 -30 136 -30 109 0 148 16 140 55 -3 16 -10 24 -18 21 -33 -13 -133 -17
-170 -7 -53 14 -94 58 -101 109 -5 36 -3 40 22 46 15 4 85 6 155 5 70 -1 133
1 139 5 27 17 -15 162 -57 199 -45 41 -135 57 -197 35z m132 -69 c21 -18 56
-96 48 -109 -4 -6 -56 -10 -121 -10 -89 0 -116 3 -120 14 -8 22 33 94 64 111
32 18 103 14 129 -6z"/>
<path d="M2740 2365 l0 -235 40 0 40 0 0 235 0 235 -40 0 -40 0 0 -235z"/>
<path d="M975 2079 c-4 -6 -13 -110 -21 -232 -7 -122 -16 -250 -20 -284 l-7
-63 65 0 65 0 7 207 c4 114 10 212 14 217 3 5 18 -44 34 -110 34 -136 51 -200
71 -264 l14 -45 49 0 49 0 27 80 c15 44 44 135 64 203 20 67 40 122 44 122 10
0 20 -143 20 -287 l0 -123 65 0 c64 0 65 0 65 28 0 78 -30 544 -35 552 -3 5
-41 9 -84 9 -74 -1 -77 -2 -88 -27 -13 -31 -55 -166 -73 -232 -19 -69 -41
-140 -44 -140 -2 0 -11 35 -20 78 -10 42 -21 88 -26 102 -5 14 -18 59 -30 100
-37 129 -28 120 -119 120 -46 0 -83 -5 -86 -11z"/>
<path d="M4306 2035 c-15 -16 -30 -104 -24 -145 3 -24 3 -24 184 -76 62 -17
108 -18 122 -1 5 6 15 41 21 77 10 59 9 66 -8 83 -10 11 -45 25 -77 32 -33 8
-86 21 -119 29 -75 19 -80 19 -99 1z"/>
<path d="M1770 1917 c-76 -36 -110 -78 -130 -165 -14 -60 -2 -123 34 -178 59
-92 216 -117 317 -50 83 56 114 197 65 294 -27 53 -34 60 -89 91 -43 24 -153
28 -197 8z m122 -88 c11 -6 29 -31 40 -55 49 -111 -36 -237 -119 -179 -41 29
-54 117 -27 184 21 53 63 73 106 50z"/>
<path d="M2314 1911 c-18 -11 -35 -24 -38 -30 -12 -19 -26 -12 -26 14 0 24 -3
25 -55 25 l-55 0 0 -210 0 -210 65 0 65 0 0 136 0 136 29 29 c35 34 49 36 85
8 26 -20 26 -21 26 -165 l0 -144 65 0 65 0 0 155 c0 176 -8 207 -62 249 -44
33 -117 36 -164 7z"/>
<path d="M2725 1913 c-83 -43 -118 -107 -119 -214 0 -62 5 -83 23 -113 49 -79
151 -113 279 -92 l67 11 -1 43 c0 23 -3 44 -5 46 -2 2 -32 -1 -66 -7 -48 -8
-71 -8 -103 3 -43 14 -77 51 -65 70 4 6 58 10 142 10 l136 0 -5 63 c-8 92 -41
147 -112 182 -38 20 -133 18 -171 -2z"/>
<path d="M4783 1908 c-15 -16 -23 -43 -28 -88 -7 -72 3 -91 55 -103 14 -3 54
-13 90 -22 144 -36 159 -38 174 -26 16 14 40 134 31 161 -7 22 -32 32 -155 60
-52 13 -103 27 -112 31 -26 13 -32 11 -55 -13z"/>
<path d="M3010 1915 c0 -3 4 -13 10 -23 5 -9 35 -80 66 -157 30 -77 62 -154
70 -172 8 -17 14 -40 14 -51 0 -29 -34 -66 -80 -87 -30 -14 -39 -23 -34 -34 3
-9 10 -31 14 -49 5 -19 11 -36 14 -39 12 -13 95 30 135 70 46 45 102 153 144
277 14 41 39 114 56 162 17 49 31 92 31 98 0 13 -127 13 -135 1 -3 -5 -10 -29
-15 -53 -28 -132 -47 -203 -55 -203 -8 0 -15 20 -55 155 -31 109 -27 105 -109
108 -39 2 -71 0 -71 -3z"/>
<path d="M4248 1753 c-8 -10 -21 -47 -27 -83 -10 -58 -9 -66 8 -83 10 -10 33
-22 52 -27 80 -21 146 -39 174 -48 41 -13 73 1 80 35 3 15 11 47 17 71 10 38
9 46 -8 63 -11 10 -46 26 -79 35 -33 9 -82 22 -110 29 -27 7 -59 16 -70 20
-14 4 -26 0 -37 -12z"/>
<path d="M4723 1618 c-22 -29 -34 -78 -31 -124 3 -45 6 -50 38 -66 19 -9 62
-22 95 -28 33 -7 67 -16 75 -20 26 -13 94 -21 108 -11 16 10 45 136 37 161 -7
22 -36 36 -110 54 -33 8 -87 21 -120 30 -74 19 -80 19 -92 4z"/>
<path d="M4181 1461 c-16 -29 -30 -134 -20 -152 9 -19 34 -29 139 -59 41 -12
87 -26 102 -32 15 -6 34 -8 43 -5 18 8 40 60 47 115 8 57 -10 75 -102 102 -41
12 -94 28 -118 36 -57 19 -79 18 -91 -5z"/>
<path d="M4656 1318 c-9 -12 -16 -32 -16 -44 0 -11 -5 -36 -11 -53 -15 -43 1
-78 38 -87 15 -4 33 -10 38 -14 6 -4 28 -11 50 -15 22 -4 45 -10 50 -14 15
-12 132 -34 143 -27 5 3 18 40 27 81 l18 76 -24 23 c-22 21 -54 32 -201 69
-25 7 -50 15 -54 20 -14 14 -43 7 -58 -15z"/>
</g>
</svg>
